<svg width="198" height="50" viewBox="0 0 198 50" fill="none" xmlns="http://www.w3.org/2000/svg">
<rect width="197.753" height="49.1243" rx="24.5622" fill="#458FF6"/>
<path d="M43.902 31.2056C42.6553 31.2056 41.5843 30.9563 40.689 30.4576C39.805 29.9476 39.125 29.2336 38.649 28.3156C38.173 27.3863 37.935 26.2926 37.935 25.0346C37.935 23.7766 38.173 22.6886 38.649 21.7706C39.125 20.8526 39.805 20.1443 40.689 19.6456C41.5843 19.1356 42.6553 18.8806 43.902 18.8806C44.7407 18.8806 45.4943 18.9996 46.163 19.2376C46.843 19.4756 47.4267 19.827 47.914 20.2916L47.2 22.0256C46.6673 21.595 46.1517 21.289 45.653 21.1076C45.1657 20.915 44.6047 20.8186 43.97 20.8186C42.7573 20.8186 41.828 21.187 41.182 21.9236C40.5473 22.649 40.23 23.686 40.23 25.0346C40.23 26.3833 40.5473 27.426 41.182 28.1626C41.828 28.8993 42.7573 29.2676 43.97 29.2676C44.6047 29.2676 45.1657 29.177 45.653 28.9956C46.1517 28.803 46.6673 28.4856 47.2 28.0436L47.914 29.7776C47.4267 30.231 46.843 30.5823 46.163 30.8316C45.4943 31.081 44.7407 31.2056 43.902 31.2056ZM53.072 31.2056C52.188 31.2056 51.423 31.0243 50.777 30.6616C50.131 30.299 49.6267 29.7833 49.264 29.1146C48.9127 28.446 48.737 27.6526 48.737 26.7346C48.737 25.8166 48.9127 25.029 49.264 24.3716C49.6267 23.703 50.131 23.1873 50.777 22.8246C51.423 22.462 52.188 22.2806 53.072 22.2806C53.956 22.2806 54.721 22.462 55.367 22.8246C56.0244 23.1873 56.5287 23.703 56.88 24.3716C57.2427 25.029 57.424 25.8166 57.424 26.7346C57.424 27.6526 57.2427 28.446 56.88 29.1146C56.5287 29.7833 56.0244 30.299 55.367 30.6616C54.721 31.0243 53.956 31.2056 53.072 31.2056ZM53.072 29.5736C53.7407 29.5736 54.2734 29.3413 54.67 28.8766C55.0667 28.4006 55.265 27.6866 55.265 26.7346C55.265 25.7826 55.0667 25.0743 54.67 24.6096C54.2734 24.145 53.7407 23.9126 53.072 23.9126C52.4034 23.9126 51.8707 24.145 51.474 24.6096C51.0774 25.0743 50.879 25.7826 50.879 26.7346C50.879 27.6866 51.0774 28.4006 51.474 28.8766C51.8707 29.3413 52.4034 29.5736 53.072 29.5736ZM59.2566 31.0356V24.5926C59.2566 24.2413 59.2453 23.8843 59.2226 23.5216C59.1999 23.159 59.1659 22.802 59.1206 22.4506H61.1776L61.3476 24.1506H61.1436C61.4156 23.55 61.8179 23.091 62.3506 22.7736C62.8833 22.445 63.5009 22.2806 64.2036 22.2806C65.2123 22.2806 65.9716 22.564 66.4816 23.1306C66.9916 23.6973 67.2466 24.5813 67.2466 25.7826V31.0356H65.1216V25.8846C65.1216 25.1933 64.9856 24.7003 64.7136 24.4056C64.4529 24.0996 64.0563 23.9466 63.5236 23.9466C62.8663 23.9466 62.3449 24.1506 61.9596 24.5586C61.5743 24.9666 61.3816 25.5106 61.3816 26.1906V31.0356H59.2566ZM72.5598 31.2056C71.8231 31.2056 71.1431 31.1206 70.5198 30.9506C69.9078 30.7693 69.3921 30.52 68.9728 30.2026L69.5678 28.7746C69.9984 29.0693 70.4744 29.296 70.9958 29.4546C71.5171 29.6133 72.0441 29.6926 72.5768 29.6926C73.1434 29.6926 73.5628 29.5963 73.8348 29.4036C74.1181 29.211 74.2598 28.9503 74.2598 28.6216C74.2598 28.361 74.1691 28.157 73.9878 28.0096C73.8178 27.851 73.5401 27.732 73.1548 27.6526L71.4548 27.3296C70.7294 27.171 70.1741 26.899 69.7888 26.5136C69.4148 26.1283 69.2278 25.624 69.2278 25.0006C69.2278 24.468 69.3694 23.9976 69.6528 23.5896C69.9474 23.1816 70.3611 22.8643 70.8938 22.6376C71.4378 22.3996 72.0724 22.2806 72.7978 22.2806C73.4324 22.2806 74.0274 22.3656 74.5828 22.5356C75.1494 22.7056 75.6254 22.9606 76.0108 23.3006L75.3988 24.6776C75.0474 24.3943 74.6451 24.1733 74.1918 24.0146C73.7384 23.856 73.2964 23.7766 72.8658 23.7766C72.2764 23.7766 71.8458 23.8843 71.5738 24.0996C71.3018 24.3036 71.1658 24.57 71.1658 24.8986C71.1658 25.148 71.2451 25.3576 71.4038 25.5276C71.5738 25.6863 71.8344 25.8053 72.1858 25.8846L73.8858 26.2076C74.6451 26.355 75.2174 26.6156 75.6028 26.9896C75.9994 27.3523 76.1978 27.851 76.1978 28.4856C76.1978 29.0523 76.0448 29.5396 75.7388 29.9476C75.4328 30.3556 75.0078 30.6673 74.4638 30.8826C73.9198 31.098 73.2851 31.2056 72.5598 31.2056ZM81.1104 31.2056C80.0564 31.2056 79.2687 30.9166 78.7474 30.3386C78.226 29.7606 77.9654 28.8766 77.9654 27.6866V22.4506H80.0904V27.6696C80.0904 28.3043 80.2207 28.7746 80.4814 29.0806C80.742 29.3753 81.1387 29.5226 81.6714 29.5226C82.272 29.5226 82.7594 29.3186 83.1334 28.9106C83.5187 28.5026 83.7114 27.9643 83.7114 27.2956V22.4506H85.8364V31.0356H83.7624V29.2846H84.0004C83.751 29.8966 83.3714 30.3726 82.8614 30.7126C82.3627 31.0413 81.779 31.2056 81.1104 31.2056ZM88.1433 31.0356V18.5236H90.2683V31.0356H88.1433ZM96.2479 31.2056C95.2279 31.2056 94.4573 30.9393 93.9359 30.4066C93.4146 29.874 93.1539 29.075 93.1539 28.0096V24.0486H91.5049V22.4506H93.1539V20.2576L95.2789 19.7136V22.4506H97.5739V24.0486H95.2789V27.8736C95.2789 28.463 95.3923 28.8766 95.6189 29.1146C95.8456 29.3526 96.1573 29.4716 96.5539 29.4716C96.7693 29.4716 96.9506 29.4546 97.0979 29.4206C97.2566 29.3866 97.4096 29.3413 97.5569 29.2846V30.9676C97.3643 31.047 97.1489 31.1036 96.9109 31.1376C96.6843 31.183 96.4633 31.2056 96.2479 31.2056ZM107.354 31.2056C106.334 31.2056 105.564 30.9393 105.042 30.4066C104.521 29.874 104.26 29.075 104.26 28.0096V24.0486H102.611V22.4506H104.26V20.2576L106.385 19.7136V22.4506H108.68V24.0486H106.385V27.8736C106.385 28.463 106.499 28.8766 106.725 29.1146C106.952 29.3526 107.264 29.4716 107.66 29.4716C107.876 29.4716 108.057 29.4546 108.204 29.4206C108.363 29.3866 108.516 29.3413 108.663 29.2846V30.9676C108.471 31.047 108.255 31.1036 108.017 31.1376C107.791 31.183 107.57 31.2056 107.354 31.2056ZM113.917 31.2056C113.033 31.2056 112.268 31.0243 111.622 30.6616C110.976 30.299 110.471 29.7833 110.109 29.1146C109.757 28.446 109.582 27.6526 109.582 26.7346C109.582 25.8166 109.757 25.029 110.109 24.3716C110.471 23.703 110.976 23.1873 111.622 22.8246C112.268 22.462 113.033 22.2806 113.917 22.2806C114.801 22.2806 115.566 22.462 116.212 22.8246C116.869 23.1873 117.373 23.703 117.725 24.3716C118.087 25.029 118.269 25.8166 118.269 26.7346C118.269 27.6526 118.087 28.446 117.725 29.1146C117.373 29.7833 116.869 30.299 116.212 30.6616C115.566 31.0243 114.801 31.2056 113.917 31.2056ZM113.917 29.5736C114.585 29.5736 115.118 29.3413 115.515 28.8766C115.911 28.4006 116.11 27.6866 116.11 26.7346C116.11 25.7826 115.911 25.0743 115.515 24.6096C115.118 24.145 114.585 23.9126 113.917 23.9126C113.248 23.9126 112.715 24.145 112.319 24.6096C111.922 25.0743 111.724 25.7826 111.724 26.7346C111.724 27.6866 111.922 28.4006 112.319 28.8766C112.715 29.3413 113.248 29.5736 113.917 29.5736ZM123.433 31.2056C122.685 31.2056 122.022 31.03 121.444 30.6786C120.878 30.316 120.436 29.8003 120.118 29.1316C119.801 28.463 119.642 27.664 119.642 26.7346C119.642 25.8053 119.801 25.012 120.118 24.3546C120.436 23.686 120.878 23.176 121.444 22.8246C122.022 22.462 122.685 22.2806 123.433 22.2806C124.147 22.2806 124.776 22.4563 125.32 22.8076C125.876 23.1476 126.244 23.6123 126.425 24.2016H126.204V18.5236H128.329V31.0356H126.238V29.2166H126.442C126.261 29.8286 125.893 30.316 125.337 30.6786C124.793 31.03 124.159 31.2056 123.433 31.2056ZM124.028 29.5736C124.697 29.5736 125.235 29.3413 125.643 28.8766C126.051 28.4006 126.255 27.6866 126.255 26.7346C126.255 25.7826 126.051 25.0743 125.643 24.6096C125.235 24.145 124.697 23.9126 124.028 23.9126C123.36 23.9126 122.816 24.145 122.396 24.6096C121.988 25.0743 121.784 25.7826 121.784 26.7346C121.784 27.6866 121.988 28.4006 122.396 28.8766C122.816 29.3413 123.36 29.5736 124.028 29.5736ZM133.958 31.2056C133.21 31.2056 132.553 31.03 131.986 30.6786C131.42 30.316 130.978 29.8003 130.66 29.1316C130.343 28.463 130.184 27.664 130.184 26.7346C130.184 25.8053 130.343 25.012 130.66 24.3546C130.978 23.686 131.42 23.176 131.986 22.8246C132.553 22.462 133.21 22.2806 133.958 22.2806C134.684 22.2806 135.318 22.462 135.862 22.8246C136.418 23.176 136.786 23.652 136.967 24.2526H136.78L136.967 22.4506H139.007C138.973 22.802 138.939 23.159 138.905 23.5216C138.883 23.8843 138.871 24.2413 138.871 24.5926V31.0356H136.763L136.746 29.2676H136.95C136.769 29.857 136.401 30.3273 135.845 30.6786C135.29 31.03 134.661 31.2056 133.958 31.2056ZM134.553 29.5736C135.222 29.5736 135.76 29.3413 136.168 28.8766C136.576 28.4006 136.78 27.6866 136.78 26.7346C136.78 25.7826 136.576 25.0743 136.168 24.6096C135.76 24.145 135.222 23.9126 134.553 23.9126C133.885 23.9126 133.346 24.145 132.938 24.6096C132.53 25.0743 132.326 25.7826 132.326 26.7346C132.326 27.6866 132.525 28.4006 132.921 28.8766C133.329 29.3413 133.873 29.5736 134.553 29.5736ZM140.932 34.8946L140.439 33.2116C140.972 33.0983 141.42 32.968 141.782 32.8206C142.145 32.6733 142.445 32.4806 142.683 32.2426C142.921 32.0046 143.12 31.6986 143.278 31.3246L143.703 30.3216L143.652 31.1546L139.912 22.4506H142.173L144.859 29.1486H144.366L147.069 22.4506H149.211L145.301 31.5116C145.041 32.1236 144.757 32.628 144.451 33.0246C144.145 33.4326 143.817 33.7556 143.465 33.9936C143.114 34.243 142.729 34.4356 142.309 34.5716C141.89 34.7076 141.431 34.8153 140.932 34.8946Z" fill="white"/>
</svg>
